<svg width="392" height="74" viewBox="0 0 392 74" fill="none" xmlns="http://www.w3.org/2000/svg">
<path d="M64.579 74C65.6059 74 66.4384 73.1626 66.4384 72.1297V55.0371H19.4134V18.9631L1.85938 18.9631C0.832477 18.9631 4.85902e-06 19.8005 4.76924e-06 20.8334L0 72.1297C0 73.1626 0.832474 74 1.85938 74L64.579 74Z" fill="#0A5C48"/>
<path d="M83.9931 55.0368C85.02 55.0368 85.8524 54.1995 85.8524 53.1666V1.87028C85.8524 0.837357 85.02 4.97786e-06 83.9931 4.88758e-06L21.2734 0C20.2465 -9.03031e-08 19.4141 0.837353 19.4141 1.87028L19.4141 18.9629H66.439V55.0368H83.9931Z" fill="#33B6FF"/>
<path d="M137.547 67.7762C157.235 67.7762 168.647 53.6681 168.647 37.1065C168.647 20.5448 157.148 6.43677 137.547 6.43677H114.548V67.7762H137.547ZM128.661 18.3541H136.24C148.262 18.3541 154.099 27.3798 154.099 37.1065C154.099 46.8331 148.262 55.8588 136.24 55.8588H128.661V18.3541Z" fill="#0A0B0C"/>
<path d="M196.169 68.9153C210.543 68.9153 219.429 59.5392 219.429 46.6579C219.429 33.7766 210.543 24.4005 196.169 24.4005C181.707 24.4005 172.821 33.7766 172.821 46.6579C172.821 59.5392 181.707 68.9153 196.169 68.9153ZM196.169 57.6113C189.809 57.6113 186.15 53.0547 186.15 46.6579C186.15 40.2611 189.809 35.7044 196.169 35.7044C202.441 35.7044 206.187 40.2611 206.187 46.6579C206.187 53.0547 202.441 57.6113 196.169 57.6113Z" fill="#0A0B0C"/>
<path d="M247.214 68.9153C261.588 68.9153 270.474 59.5392 270.474 46.6579C270.474 33.7766 261.588 24.4005 247.214 24.4005C232.753 24.4005 223.867 33.7766 223.867 46.6579C223.867 59.5392 232.753 68.9153 247.214 68.9153ZM247.214 57.6113C240.854 57.6113 237.196 53.0547 237.196 46.6579C237.196 40.2611 240.854 35.7044 247.214 35.7044C253.486 35.7044 257.232 40.2611 257.232 46.6579C257.232 53.0547 253.486 57.6113 247.214 57.6113Z" fill="#0A0B0C"/>
<path d="M307.512 31.5859C305.247 27.2922 300.455 24.4005 294.357 24.4005C282.161 24.4005 274.407 34.0395 274.407 46.6579C274.407 59.3639 281.638 68.9153 294.183 68.9153C300.02 68.9153 305.247 66.0236 307.512 61.8175V67.7762H320.754V6.43677H307.512V31.5859ZM298.016 57.7866C291.831 57.7866 287.998 53.0547 287.998 46.6579C287.998 40.2611 291.831 35.6168 298.016 35.6168C304.637 35.6168 308.035 40.6116 308.035 46.6579C308.035 52.7918 304.637 57.7866 298.016 57.7866Z" fill="#0A0B0C"/>
<path d="M341.065 67.7762V6.43677H327.736V67.7762H341.065Z" fill="#0A0B0C"/>
<path d="M392 44.4672C392 32.5498 383.114 24.4005 370.046 24.4005C356.369 24.4005 347.396 32.8127 347.396 46.6579C347.396 60.7659 356.195 68.9153 370.482 68.9153C381.633 68.9153 390.083 63.3948 391.39 55.0701H378.323C377.19 57.699 374.576 58.8381 370.482 58.8381C364.558 58.8381 360.899 55.8588 360.638 50.3382H391.651C391.913 47.9723 392 46.6579 392 44.4672ZM360.638 42.0136C360.725 36.8436 364.21 33.4261 369.959 33.4261C375.622 33.4261 378.758 36.4054 378.845 42.0136H360.638Z" fill="#0A0B0C"/>
</svg>
