<svg version="1.1" id="Livello_1" xmlns="http://www.w3.org/2000/svg" x="0" y="0" viewBox="0 0 1286.6 288.4" xml:space="preserve">
  <style type="text/css">
    .st1{fill:#fff}.st2{fill:#101820}
  </style>
  <path d="M258.7 27.5C194-19.6 103.9-4.5 55.8 59.9 4.1 129-29.6 217.9 37.1 262.3c46.1 30.7 185 48.9 246.2-31.4C332 167 323.5 74.7 258.7 27.5" fill-rule="evenodd" clip-rule="evenodd" fill="#5b5ba5"/>
  <polygon class="st1" points="57.7,239.1 159.7,60 183.4,60 81.4,239.1"/>
  <polygon class="st1" points="130,239.1 232,60 255.7,60 153.7,239.1"/>
  <rect x="572.7" y="75.6" class="st2" width="26.7" height="153.5"/>
  <path class="st2" d="M699 230.2c-23.5 0-45.7-8-64.1-24.2l16.3-19c14.7 12.6 29.6 19.7 48.5 19.7 16.7 0 27.2-7.8 27.2-19v-.4c0-10.8-6.1-16.6-34.7-23.1-32.7-7.8-51.2-17.3-51.2-45.2v-.4c0-26 22-43.9 52.5-43.9 22.4 0 40.2 6.7 55.8 19l-14.5 20.1c-13.8-10.2-27.7-15.6-41.7-15.6-15.8 0-25 8-25 17.9v.4c0 11.7 7 16.9 36.7 23.8 32.5 7.8 49.2 19.2 49.2 44.3v.4c-.1 28.3-22.7 45.2-55 45.2M860.2 230.2c-44.3 0-77.3-34.2-77.3-77.4v-.4c0-42.8 32.4-77.9 78.4-77.9 28 0 45 9.7 59.5 23.4l-17.2 19.6c-12.2-11.2-25.2-18.7-42.6-18.7-28.9 0-50.2 23.6-50.2 53.1v.4c0 29.5 21.1 53.3 50.2 53.3 18.7 0 30.6-7.3 43.7-19.4l17.2 17.2c-15.9 16.5-33.3 26.8-61.7 26.8M986.6 167.8h52.1l-26.2-61.3-25.9 61.3zm-53.5 61.3l67.1-154.6h24.8l67.1 154.6h-28.3l-15.5-37.1h-72.1l-15.7 37.1h-27.4z"/>
  <polygon class="st2" points="1118.7,229.1 1118.7,75.6 1145.4,75.6 1145.4,204.5 1225.5,204.5 1225.5,229.1"/>
  <rect x="1258.8" y="75.6" class="st2" width="27.8" height="153.5"/>
  <polygon class="st2" points="457.8,229.1 457.8,100.6 409.2,100.6 409.2,75.6 533.7,75.6 533.7,100.6 485,100.6 485,229.1"/>
</svg>
